<svg version="1.1" id="Layer_1" xmlns="http://www.w3.org/2000/svg" xmlns:xlink="http://www.w3.org/1999/xlink" x="0px" y="0px"
	 width="100%" viewBox="0 0 1024 1024" enable-background="new 0 0 1024 1024" xml:space="preserve">
<path fill="#000000" opacity="1.000000" stroke="none" 
	d="
M690.748657,267.135132 
	C739.303345,294.585663 769.126648,335.272491 779.982300,389.664429 
	C781.610474,397.822205 782.111267,406.187103 782.119995,414.506134 
	C782.186157,477.666840 782.573181,540.831604 781.985779,603.987000 
	C781.591858,646.343689 766.862854,683.709412 739.017151,715.774109 
	C716.730652,741.437317 688.675049,757.826538 656.379822,767.599976 
	C652.599243,768.744080 648.732849,770.132324 645.026245,771.939697 
	C641.554138,773.632690 636.088684,772.829590 631.513184,773.316284 
	C608.275513,775.788147 584.973083,774.237000 561.699280,774.433044 
	C538.912354,774.625061 516.124878,774.866333 493.337677,774.863403 
	C472.044495,774.860718 450.751373,774.560425 429.458191,774.401489 
	C414.997467,774.293640 400.484467,775.335876 386.158813,772.348938 
	C343.050079,763.360474 306.906586,742.917664 279.484528,707.897827 
	C260.920380,684.190063 249.062668,657.580261 244.203491,627.891113 
	C243.346481,622.654907 242.891022,617.292603 242.881012,611.987305 
	C242.757385,546.326965 242.766571,480.666351 242.709686,415.005829 
	C242.651093,347.365204 288.153687,282.927094 352.690979,258.047699 
	C374.227966,249.745071 396.517242,245.958191 419.599030,246.043213 
	C466.760773,246.216919 513.927917,245.743103 561.083618,246.308731 
	C578.903442,246.522507 596.709106,245.942352 614.536194,246.375488 
	C641.636047,247.033890 666.719116,254.230804 690.748657,267.135132 
M627.711060,566.246704 
	C644.686340,529.273926 644.836792,492.215515 627.775696,455.298950 
	C614.376648,426.306396 591.792847,406.679779 563.133484,393.551941 
	C561.213440,392.672424 558.972656,391.273865 557.027405,392.952850 
	C554.244629,395.354767 551.842468,394.431458 549.338989,392.802338 
	C537.994812,385.420227 525.575073,381.819397 512.036865,382.244873 
	C466.350830,383.680664 429.733643,402.354645 404.236542,440.616272 
	C379.840271,477.225952 377.470978,516.694153 392.069489,557.498169 
	C399.471344,578.186890 412.557465,595.000305 429.505524,608.926575 
	C455.018860,629.890808 484.149750,639.879517 517.206055,638.852295 
	C545.203674,637.982239 569.878662,628.100281 591.723389,611.242798 
	C607.032471,599.428894 618.937988,584.461304 627.711060,566.246704 
M556.286621,351.090668 
	C555.988281,352.476501 554.506531,353.600677 555.461792,355.516449 
	C581.936157,363.036987 605.164856,376.526764 624.836609,396.049072 
	C626.772400,397.970184 628.381104,397.955597 630.401184,396.147064 
	C635.115967,391.926025 639.848938,387.711334 644.776306,383.744629 
	C654.376160,376.016418 664.000488,368.309570 673.827942,360.875793 
	C683.159912,353.816742 694.095459,356.632904 698.690430,366.950012 
	C701.646057,373.586304 699.828125,381.220703 693.622864,386.194427 
	C680.108459,397.026672 666.452881,407.683044 652.835083,418.386047 
	C647.443054,422.623962 647.298340,423.141296 650.666565,428.965485 
	C655.256409,436.902130 659.831787,444.881287 662.798584,453.573120 
	C664.238281,457.790833 666.548157,459.136292 670.840515,459.105347 
	C694.997681,458.930847 719.157593,458.854431 743.313721,459.069214 
	C748.191528,459.112610 749.349060,457.034271 749.297119,452.874756 
	C749.199585,445.066559 749.474609,437.247986 749.182007,429.449219 
	C748.683655,416.168121 750.044128,402.766998 746.896362,389.642548 
	C738.135315,353.113159 717.606750,324.714172 686.834473,303.625397 
	C663.164185,287.403625 637.201477,278.305908 608.093201,279.105438 
	C593.275452,279.512451 578.434265,279.302307 563.608826,279.057587 
	C558.766113,278.977631 557.222717,280.724854 557.267090,285.459351 
	C557.447876,304.786682 557.347229,324.116699 557.322266,343.445709 
	C557.319275,345.760773 557.613403,348.129181 556.286621,351.090668 
M613.782349,636.318665 
	C597.938965,648.832520 580.648499,658.642395 561.143921,664.220581 
	C557.119568,665.371582 554.225464,666.495911 556.914307,671.605835 
	C557.828186,673.342468 557.355469,675.856445 557.361389,678.015686 
	C557.413147,697.012573 557.492920,716.009888 557.408264,735.006287 
	C557.389404,739.242615 558.926758,740.969910 563.285278,740.909363 
	C575.780640,740.735962 588.280151,740.858337 600.778015,740.867493 
	C613.420410,740.876770 626.034729,741.217285 638.523865,738.226196 
	C669.587585,730.786499 695.240662,714.667114 715.793579,690.430115 
	C732.955322,670.192078 744.614441,647.128967 747.852356,620.612366 
	C750.174072,601.598877 749.219238,582.378845 748.996155,563.235779 
	C748.949219,559.202393 746.407471,559.285339 743.599060,559.286865 
	C719.102356,559.299744 694.605225,559.355713 670.109375,559.208740 
	C666.437744,559.186768 664.789062,560.580505 663.684570,563.932251 
	C660.290039,574.233887 655.992615,584.160583 650.458862,593.524475 
	C646.857849,599.618042 646.939026,599.567749 652.417175,603.851868 
	C666.325562,614.728882 680.272400,625.560181 694.021851,636.635620 
	C700.970093,642.232483 701.954529,651.492676 696.892273,658.608765 
	C692.035278,665.436523 683.274780,666.989746 675.599304,662.244019 
	C672.915283,660.584473 670.350769,658.701721 667.876343,656.738525 
	C655.479492,646.902954 643.034180,637.123840 630.829895,627.053406 
	C627.597412,624.386169 625.645935,624.736328 623.042480,627.643738 
	C620.387024,630.609314 617.265564,633.157654 613.782349,636.318665 
M369.549316,605.029419 
	C376.758881,599.435791 376.877563,599.369568 372.451721,591.440674 
	C367.486511,582.545471 363.010345,573.437317 359.842346,563.750366 
	C358.803284,560.573059 357.129517,559.155457 353.720123,559.237305 
	C346.892517,559.401245 340.057922,559.262207 333.226196,559.264954 
	C315.730164,559.271973 298.233398,559.377991 280.738647,559.234192 
	C276.616974,559.200256 275.003632,560.648438 275.195953,564.761292 
	C275.421417,569.583435 275.184906,574.425110 275.287445,579.255371 
	C275.591217,593.562500 273.938232,608.002258 276.553375,622.153442 
	C285.072296,668.251404 309.784851,702.773499 351.340240,724.917419 
	C353.625000,726.134888 355.548706,727.395874 356.251099,730.145020 
	C356.998505,733.070374 359.037384,734.475403 361.889496,732.914001 
	C364.460480,731.506592 366.609100,732.227844 369.003235,733.152466 
	C381.544647,737.995850 394.550781,740.646729 407.998566,740.765381 
	C425.326294,740.918396 442.655823,740.892578 459.984558,740.891541 
	C466.333160,740.891174 466.599152,740.537048 466.656708,733.973694 
	C466.853241,711.562500 466.198608,689.139465 467.120819,666.330566 
	C466.776917,666.169495 465.920288,665.654846 464.994446,665.351013 
	C440.259918,657.231750 417.897705,645.138184 399.608978,626.258484 
	C397.773163,624.363342 396.395264,624.614807 394.557465,626.232666 
	C390.434052,629.862610 386.197876,633.367798 381.940887,636.841980 
	C371.099854,645.689392 360.067871,654.293945 348.495117,662.170532 
	C336.882355,670.074341 325.156342,660.669556 324.075653,651.468933 
	C323.368835,645.451599 325.688751,640.652771 330.205017,636.953491 
	C343.087006,626.401794 356.067841,615.970825 369.549316,605.029419 
M332.248779,387.263123 
	C327.084991,382.925995 322.716827,378.007233 324.217651,370.660889 
	C326.777771,358.129364 338.414978,353.409637 348.963501,360.835114 
	C363.952057,371.386108 378.430206,382.638031 391.935028,395.064423 
	C394.799866,397.700470 396.612030,398.102417 399.715973,395.040375 
	C412.977692,381.957764 427.919373,371.227539 445.095123,363.696228 
	C452.850494,360.295593 460.973450,357.970886 469.316284,355.215881 
	C467.149689,350.441498 466.572968,345.933594 466.609039,341.215088 
	C466.746521,323.218719 466.672852,305.220612 466.652405,287.223175 
	C466.643829,279.651550 466.160858,279.179474 458.803619,279.181763 
	C442.639465,279.186829 426.475037,279.259888 410.311340,279.179413 
	C404.124451,279.148621 397.997314,279.543884 391.938690,280.757294 
	C357.490356,287.656555 329.133728,304.975830 306.497498,331.580536 
	C289.688385,351.336548 279.439575,374.311554 276.228882,400.068878 
	C273.958160,418.285980 275.592896,436.674011 275.231567,454.981445 
	C275.160675,458.573669 277.298920,458.965942 280.096497,458.963409 
	C304.923462,458.940704 329.750519,458.923370 354.577209,459.006805 
	C357.734314,459.017426 359.228271,457.886780 360.276855,454.806458 
	C363.619080,444.988525 368.349670,435.768219 374.144836,427.191162 
	C376.371826,423.895172 375.909821,422.206665 372.973846,419.894897 
	C359.492615,409.279724 346.158997,398.477051 332.248779,387.263123 
M713.500183,526.844604 
	C723.644287,526.860596 733.789734,526.790649 743.931885,526.939026 
	C747.504517,526.991272 749.156616,525.679993 749.102112,522.032959 
	C748.973022,513.388184 748.875610,504.740753 748.956055,496.096161 
	C748.990417,492.403442 747.440002,491.227936 743.849792,491.246826 
	C722.063293,491.361328 700.275330,491.388702 678.489136,491.247192 
	C674.237549,491.219574 672.980042,492.943756 673.099060,496.903625 
	C673.323792,504.381348 673.243225,511.868103 673.296936,519.351074 
	C673.346985,526.309814 673.930969,526.936462 681.074402,526.947937 
	C691.549622,526.964722 702.024902,526.886414 713.500183,526.844604 
M350.090271,503.071838 
	C350.082428,500.746674 350.165405,498.416779 350.044739,496.097504 
	C349.879395,492.920013 348.192352,491.289856 344.911865,491.294678 
	C323.270538,491.326447 301.629150,491.328522 279.987793,491.334717 
	C276.989563,491.335571 275.282104,492.616943 275.296112,495.807251 
	C275.334106,504.463013 275.340149,513.118958 275.349030,521.774780 
	C275.352539,525.205139 276.826965,526.905945 280.480682,526.906860 
	C301.745819,526.912415 323.012268,526.925171 344.275146,527.188538 
	C349.401672,527.252075 350.815247,524.616272 350.333832,520.418640 
	C349.703369,514.921448 350.105896,509.447510 350.090271,503.071838 
M525.679382,292.551758 
	C525.673767,290.221558 525.600769,287.889099 525.677124,285.561615 
	C525.818542,281.252380 524.086731,279.043945 519.483948,279.227295 
	C514.332031,279.432587 509.164642,279.384888 504.007538,279.278107 
	C500.741699,279.210480 498.926849,280.428894 498.951721,283.856720 
	C499.100006,304.304199 498.067932,324.751831 499.002625,345.201019 
	C499.159210,348.627319 500.767578,349.834595 504.055573,349.755859 
	C509.378387,349.628418 514.719055,349.527283 520.029480,349.822998 
	C524.493958,350.071564 525.786377,348.216278 525.745117,343.968445 
	C525.581543,327.159149 525.678894,310.347290 525.679382,292.551758 
M525.656433,695.507874 
	C525.508789,689.198730 525.291748,682.890198 525.244568,676.580261 
	C525.222778,673.673279 524.041260,672.256775 521.085083,672.286743 
	C515.595581,672.342407 510.105255,672.350708 504.615417,672.335938 
	C501.176544,672.326599 499.583954,674.070312 499.023132,677.401550 
	C498.127655,682.720276 498.935394,688.012207 498.913513,693.312378 
	C498.857208,706.946472 498.969086,720.581238 498.948578,734.215637 
	C498.942047,738.574829 500.350128,741.211060 505.332428,740.931946 
	C509.812012,740.680969 514.332214,740.606323 518.803589,740.909485 
	C523.360840,741.218506 525.118530,739.412231 525.137512,734.924927 
	C525.191650,722.117859 525.466309,709.311768 525.656433,695.507874 
z"/>
<path fill="#000000" opacity="1.000000" stroke="none" 
	d="
M658.025146,795.192749 
	C653.279907,794.969543 648.930237,795.802063 644.989380,793.046509 
	C641.667847,790.723999 640.250549,788.147095 641.748291,784.165344 
	C643.455200,779.627380 643.924438,773.866394 651.251221,775.594727 
	C651.533508,775.661316 651.966370,775.524048 652.193726,775.326294 
	C660.291748,768.285278 670.209534,770.514343 679.303162,770.872192 
	C696.386475,771.544556 713.424561,773.490906 730.461914,775.112854 
	C734.631470,775.509766 738.495239,777.187439 741.562317,780.243103 
	C739.130127,787.801331 736.857422,788.601074 727.377136,789.829163 
	C707.971497,792.343079 688.401245,792.626648 668.983643,794.817505 
	C665.523926,795.207886 662.004395,795.068420 658.025146,795.192749 
z"/>
<path fill="#000000" opacity="1.000000" stroke="none" 
	d="
M354.169861,792.402344 
	C349.707184,795.148560 345.333588,793.159058 341.134796,793.041687 
	C332.874878,792.810852 324.527130,792.738403 316.519379,790.177795 
	C313.269531,789.138672 310.125061,787.832031 309.996521,783.679016 
	C309.869751,779.584167 311.808380,776.299072 315.474945,774.952881 
	C326.604401,770.866882 338.312195,770.591064 349.849182,771.921692 
	C355.214966,772.540466 358.326080,777.554443 359.601410,782.868225 
	C360.667267,787.309204 357.898834,790.020630 354.169861,792.402344 
z"/>
<path fill="#000000" opacity="1.000000" stroke="none" 
	d="
M418.310730,510.236450 
	C418.127411,512.760132 419.483887,514.352905 420.263489,516.172791 
	C422.351807,521.047974 420.292786,524.814209 415.088135,525.795349 
	C412.638855,526.257080 410.119659,526.463501 407.740906,527.158081 
	C403.694672,528.339539 400.242401,527.698975 397.103546,524.824585 
	C394.439728,522.385193 391.541931,520.477722 387.588806,523.739380 
	C386.041077,518.188599 386.484802,513.280273 387.395844,508.404205 
	C391.732178,485.194244 403.251770,465.968079 419.712036,449.306366 
	C431.907471,436.961670 446.875732,429.121033 462.220001,421.768646 
	C465.914642,419.998322 469.934235,419.816101 473.967926,419.952759 
	C480.794434,420.184143 487.211731,418.959198 492.819153,414.735565 
	C495.025421,413.073792 497.715454,412.439972 500.338043,412.257721 
	C512.150146,411.437042 523.977722,411.107239 535.699341,413.288116 
	C540.101196,414.107117 540.425232,415.233856 537.708435,418.765106 
	C537.403992,419.160828 536.901794,419.494568 536.788086,419.933899 
	C533.263367,433.550568 520.593201,438.618744 511.403870,446.858856 
	C504.200806,453.317932 495.689331,457.329651 485.641754,456.982635 
	C480.706696,456.812164 476.704071,459.731781 472.639374,461.680756 
	C469.058807,463.397614 470.600403,467.011475 472.920868,469.687775 
	C477.749298,475.256622 480.127136,481.395233 478.407104,488.990906 
	C476.224640,498.628479 466.736145,506.038910 456.788757,505.312561 
	C446.692566,504.575348 438.358887,496.142029 437.668579,486.128632 
	C437.358795,481.635132 438.297028,477.323578 440.004395,472.329590 
	C434.311432,472.678314 431.219147,475.273376 428.957062,479.095856 
	C426.872711,482.618011 426.310364,486.680786 425.772095,490.593262 
	C424.983826,496.322998 423.715271,501.675629 419.789856,506.170532 
	C418.974121,507.104614 418.816772,508.613678 418.310730,510.236450 
z"/>
<path fill="#000000" opacity="1.000000" stroke="none" 
	d="
M541.558472,588.772217 
	C514.459961,598.717712 489.148346,595.589783 465.532745,579.936157 
	C456.866699,574.191833 449.898071,566.534607 444.942322,557.228821 
	C442.095154,551.882568 442.082123,546.312561 443.920837,540.763062 
	C447.124512,531.093689 460.245056,528.436096 467.146667,535.914856 
	C472.553375,541.773804 477.577667,548.021362 484.362976,552.466553 
	C504.495056,565.655518 531.052795,562.808960 547.923096,545.591980 
	C550.251709,543.215515 552.589905,540.841797 554.798889,538.355957 
	C560.439575,532.008362 566.120422,530.133850 571.850952,532.848877 
	C578.212036,535.862671 582.237488,543.958435 580.971985,551.268188 
	C579.622253,559.064636 574.673523,564.762756 569.494202,570.181519 
	C561.693970,578.342285 552.433838,584.456055 541.558472,588.772217 
z"/>
<path fill="#000000" opacity="1.000000" stroke="none" 
	d="
M573.028931,503.374573 
	C562.351013,506.956085 553.712219,504.713776 548.156616,497.131805 
	C542.423584,489.307709 542.156799,479.240082 547.491882,472.045990 
	C553.171997,464.386627 561.135864,461.647705 570.446777,464.151550 
	C578.441345,466.301392 584.605530,474.004822 585.390503,482.826355 
	C586.195435,491.872803 582.034668,498.969391 573.028931,503.374573 
z"/>
<path fill="#000000" opacity="1.000000" stroke="none" 
	d="
M618.805725,318.385559 
	C626.496826,315.406067 632.804138,316.859344 637.086731,322.318604 
	C641.506592,327.952881 641.812866,335.999573 637.562317,341.838959 
	C633.942261,346.812256 630.193054,351.705688 626.258850,356.432983 
	C619.880249,364.097321 611.950500,365.389099 605.289307,360.102539 
	C597.970398,354.294006 596.543945,345.154022 602.369507,337.487335 
	C607.370422,330.905884 611.550415,323.556427 618.805725,318.385559 
z"/>
<path fill="#000000" opacity="1.000000" stroke="none" 
	d="
M628.140015,667.895142 
	C631.671204,672.753235 635.160339,677.212158 638.288757,681.911194 
	C642.814392,688.708984 641.187073,697.654297 634.831909,702.339050 
	C628.107300,707.296326 619.940308,706.340027 614.408691,699.663452 
	C610.277161,694.676697 606.392029,689.479980 602.520508,684.284851 
	C596.786560,676.590454 597.881958,667.078003 605.006531,661.686829 
	C611.743713,656.588867 620.475159,658.194946 626.414612,665.628479 
	C626.933350,666.277649 627.429932,666.944641 628.140015,667.895142 
z"/>
<path fill="#000000" opacity="1.000000" stroke="none" 
	d="
M425.169861,676.579468 
	C421.363556,687.097046 414.208527,694.901672 406.876495,702.287537 
	C401.888977,707.311646 393.644470,706.183167 388.187622,701.243958 
	C383.035370,696.580566 381.697784,688.317139 385.573822,682.541382 
	C389.376343,676.875061 393.491852,671.408447 397.658936,665.999817 
	C402.725983,659.423157 408.653809,657.368958 415.015381,659.671326 
	C422.045044,662.215393 425.339264,667.536499 425.169861,676.579468 
z"/>
<path fill="#000000" opacity="1.000000" stroke="none" 
	d="
M411.897644,325.121094 
	C415.669678,330.231506 419.446594,334.916443 422.682953,339.949036 
	C427.291016,347.114655 425.574341,355.402222 418.883392,360.302551 
	C412.069489,365.292938 404.280823,364.216156 398.623322,357.184387 
	C394.554169,352.126740 390.683624,346.891693 386.997894,341.547211 
	C381.287048,333.266235 382.400696,324.675659 389.384003,319.468262 
	C394.794464,315.433746 404.914001,314.655090 410.705963,323.696259 
	C410.973450,324.113739 411.340485,324.467468 411.897644,325.121094 
z"/>
</svg> 
 
 
 
